<svg enable-background="new 0 0 128 128" viewBox="0 0 128 128" xmlns="http://www.w3.org/2000/svg" xmlns:xlink="http://www.w3.org/1999/xlink"><linearGradient id="a"><stop offset=".0012" stop-color="#c69c6d"/><stop offset=".0071" stop-color="#c59b6c"/><stop offset=".6855" stop-color="#7d542c"/><stop offset="1" stop-color="#603813"/></linearGradient><linearGradient id="b" gradientTransform="matrix(1 0 0 -1 0 128)" gradientUnits="userSpaceOnUse" x1="111.0945" x2="111.0945" xlink:href="#a" y1="92.8467" y2="57.2812"/><linearGradient id="c"><stop offset=".2321" stop-color="#ffaf61"/><stop offset=".4152" stop-color="#fcac5f"/><stop offset=".572" stop-color="#f3a159"/><stop offset=".7192" stop-color="#e38f50"/><stop offset=".8597" stop-color="#cd7742"/><stop offset=".9051" stop-color="#c46d3d"/></linearGradient><linearGradient id="d" gradientTransform="matrix(1 0 0 -1 0 128)" gradientUnits="userSpaceOnUse" x1="94.3497" x2="91.0009" xlink:href="#c" y1="15.5277" y2="27.6207"/><linearGradient id="e" gradientTransform="matrix(1 0 0 -1 0 128)" gradientUnits="userSpaceOnUse" x1="24.7507" x2="42.1736" xlink:href="#c" y1="35.509" y2="35.509"/><linearGradient id="f" gradientTransform="matrix(1 0 0 -1 0 128)" gradientUnits="userSpaceOnUse" x1="61.6485" x2="61.6485" y1="87.1563" y2="9.1994"><stop offset="0" stop-color="#ffaf61"/><stop offset=".028" stop-color="#f7a65c"/><stop offset=".125" stop-color="#e18d4f"/><stop offset=".226" stop-color="#d17b45"/><stop offset=".3327" stop-color="#c7703f"/><stop offset=".4544" stop-color="#c46d3d"/><stop offset=".6196" stop-color="#d27d46"/><stop offset=".9415" stop-color="#f8a75c"/><stop offset="1" stop-color="#ffaf61"/></linearGradient><linearGradient id="g" gradientTransform="matrix(1 0 0 -1 0 128)" gradientUnits="userSpaceOnUse" x1="11.3556" x2="11.3556" y1="76.8701" y2="61.8339"><stop offset="0" stop-color="#fff1c4"/><stop offset=".4265" stop-color="#ffe2a7"/><stop offset="1" stop-color="#ffca7b"/></linearGradient><linearGradient id="h" gradientTransform="matrix(1 0 0 -1 0 128)" gradientUnits="userSpaceOnUse" x1="65.5744" x2="87.8244" y1="77.4786" y2="56.2286"><stop offset="0" stop-color="#fbc02d"/><stop offset=".6867" stop-color="#fedc36"/><stop offset=".9988" stop-color="#ffeb3b"/></linearGradient><linearGradient id="i" gradientTransform="matrix(1 0 0 -1 0 128)" gradientUnits="userSpaceOnUse" x1="25.2805" x2="56.6605" xlink:href="#a" y1="101.0236" y2="79.2648"/><linearGradient id="j" gradientTransform="matrix(1 0 0 -1 0 128)" gradientUnits="userSpaceOnUse" x1="16.8075" x2="25.6424" xlink:href="#a" y1="95.5754" y2="86.6086"/><linearGradient id="k" gradientTransform="matrix(.8586 .5127 .5127 -.8586 62.206 66.9006)" gradientUnits="userSpaceOnUse" x1="-43.7138" x2="-42.3034" y1="18.4904" y2="10.5571"><stop offset="0" stop-color="#d49151"/><stop offset=".3194" stop-color="#d28e4f"/><stop offset=".5929" stop-color="#ce8349"/><stop offset=".8489" stop-color="#c6713f"/><stop offset=".9" stop-color="#c46d3d"/></linearGradient><linearGradient id="l" gradientTransform="matrix(1 0 0 -1 0 128)" gradientUnits="userSpaceOnUse" x1="44.2174" x2="41.4665" y1="79.3275" y2="78.4629"><stop offset="0" stop-color="#ffca28"/><stop offset="1" stop-color="#ffb300"/></linearGradient><linearGradient id="m" gradientTransform="matrix(1 0 0 -1 0 128)" gradientUnits="userSpaceOnUse" x1="65.7141" x2="92.0189" y1="63.5739" y2="88.8266"><stop offset=".2009" stop-color="#eee"/><stop offset="1" stop-color="#bdbdbd"/></linearGradient><radialGradient id="n" cx="56.1925" cy="98.6446" gradientTransform="matrix(1 0 0 -1 0 128)" gradientUnits="userSpaceOnUse" r="32.5143"><stop offset=".3666" stop-color="#fb8c00"/><stop offset=".6719" stop-color="#f67f00"/><stop offset="1" stop-color="#ef6c00"/></radialGradient><radialGradient id="o" cx="48.0531" cy="116.8756" gradientTransform="matrix(1 0 0 -1 0 128)" gradientUnits="userSpaceOnUse" r="11.12"><stop offset="0" stop-color="#757575"/><stop offset="1" stop-color="#616161"/></radialGradient><linearGradient id="p" gradientTransform="matrix(1 0 0 -1 0 128)" gradientUnits="userSpaceOnUse" x1="42.7743" x2="49.2859" y1="79.1252" y2="80.3345"><stop offset=".5" stop-color="#ffca28"/><stop offset="1" stop-color="#ffb300"/></linearGradient><path d="m101.75 36.53s.04.23.09.66c.07.38.2.88.42 1.51 1.33 3.85 4.71 5.89 7.96 7.62 3.46 1.84 7.14 3.71 9.62 6.57 2.49 2.87 4.02 6.67 2.68 10.45-1.17 3.3-4.63 6.2-8.53 6.39-1.16.07-2.13-.14-2.83-.39-.71-.25-1.14-.62-1.4-.85-.25-.26-.35-.4-.35-.4-.14-.19-.07-.45.16-.59.12-.07.26-.1.39-.07l.08.01s.16.03.46.08c.15.02.33.02.53.04.22-.02.44-.02.7-.06 1.88-.32 3.53-1.61 3.92-3.29.27-1.16-.02-2.34-.6-3.35-1.33-2.35-3.76-3.77-6-5.42-2.38-1.76-5.08-3.35-6.94-5.69-1.88-2.35-3.23-5.49-2.92-8.95.07-.73 1.06-5.55 2.32-4.63.14.09.21.22.24.36z" fill="url(#b)"/><path d="m105.91 97.63c-1.36-1.19-7.94-12.36-7.92-13.88l.17-.25-.16-.29c-.19-.34-.54-.98-16.6.9l-1.16.14 4.07 3.39c.49.67 5.15 6.92 8.26 9.68 2.04 1.81 3.51 3.12 3.55 4.17.01.43-.21.86-.71 1.36-1.17 1.17-5.74 4-9.41 6.28-2.34 1.45-4.36 2.7-5.03 3.23-.72.57-1.32 2.54-1.44 3.39l-.1.73.72-.18c2.08-.54 5.96-.8 5.99-.8l.13-.01 19.08-12.26c.44-.29.78-.71.94-1.2.39-1.18.86-3.31-.38-4.4z" fill="url(#d)"/><path d="m55.58 76.6c-.17-.31-.59-.82-1.53-.82-1.27 0-4 .89-13.87 7.82-1.05.42-9.59 3.84-12.34 4.29-1.47.24-2.78 1.65-3.33 3.59-.66 2.33-.04 4.6 1.66 6.08 2.15 1.87 6.37 6.04 6.71 7.06.51 1.53 2.06 2.08 3.56 2.62.58.21 1.19.43 1.76.7.57.28 1.13.54 1.67.8l.99.47.37-1.03c.55-1.53 1.22-3.05 1.92-4.6l.31-.69-.58-.49c-1.44-1.2-2.63-1.31-3.34-1.37-.12-.01-.29-.03-.34-.04-1.47-.77-5.03-3.89-6.22-5.37.94-.25 2.58-.59 4.08-.9 6.91-1.42 11.51-2.49 12.44-4.32.21-.42.25-.88.1-1.31.14-.71 1.63-3.03 2.63-4.57 2.88-4.48 4.08-6.58 3.35-7.92z" fill="url(#e)"/><g fill="#603813"><path d="m86.6 115.03-.05-.44-.44-.01c-2.23-.04-4.04.17-6.23.74l-.24.06-.1.23c-1.25 2.93-1.07 7.61-.91 8.26.06.22.25.45.63.45.04 0 .08 0 .12-.01.8-.1 7.62-3.9 7.62-4.99.02-.5-.3-3.41-.4-4.29z"/><path d="m49.53 102.83c-.74-1.03-2.17-1.25-4.09-1.25-.61 0-1.27.02-1.94.05-.44.01-.88.03-1.3.04l-.95.02-.39.87c-.69 1.53-1.41 3.16-1.99 4.77l-.33.91.69.68c2.36 2.29 4.75 3.4 5.96 3.86.26.1.54.15.83.15 1.11 0 2.07-.79 2.3-1.87.3-1.43 1.03-4.89 1.46-6.15.35-1.02-.01-1.74-.25-2.08z"/><path d="m73.05 117.84c-.39-1.98-2.9-5.93-5.94-7.61-.43-.24-1.05-.02-1.23.05-.78.32-2 .89-3.58 2.16-.35.28-.52.73-.44 1.17.31 1.91.84 3.63 1.62 5.25.21.43.64.71 1.12.71h.05l7.23-.27c.36-.01.7-.18.93-.47.22-.27.31-.63.24-.99z"/><path d="m93.91 98.29c-.4.05-.8.1-1.19.16-1.11.15-2.16.3-3.18.3-1.18 0-2.15-.2-3.04-.62-.3-.32-.67-.35-.8-.35-.58 0-.99.39-1.65 1.21-1.11 1.39-1.47 4.69-1.59 6.53-.02.37.11.73.36 1s.61.42.97.42h.04.07c8.4-.71 9.92-3.45 10.18-4.59.13-.55.68-2.13.89-2.7l.55-1.53z"/></g><path d="m107.66 87.38c-.15-.16-.3-.33-.46-.5 3.88-2.65 7.82-7.51 6.92-16.22-.58-5.62-3.28-10.06-7.8-12.85-4.59-2.83-9.76-3.25-12.43-3.25-1.14 0-2.23.07-3.24.22-1.04.15-2.03.3-3.01.45-3.94.61-7.67 1.19-13.79 1.19-2.76 0-5.79-.12-9.26-.35-4.26-.29-12.6-8.76-18.7-14.93-3.64-3.69-6.78-6.87-8.92-8.36-.38-.26-.81-.4-1.28-.4-.4 0-.78.1-1.13.24-.78-1-1.69-1.5-2.71-1.5-1.14 0-2.14.66-2.8 1.15-.18.13-1.43.86-2.53 1.5-3.04 1.77-4.09 2.4-4.37 2.66-.34.31-.93 1.1-2.13 2.73-2.58 3.49-7.39 9.98-10.48 11.79-.34.2-.53.57-.49.96s.3.72.67.85c4.79 1.65 6.63 6.98 7.3 10 .08.37.36.66.72.75.15.04.32.06.53.06 1.23 0 9.21-1.67 12.69-3.01 1.74 8.91 5.05 19.78 6.35 22.25 1.88 3.59 3.88 6.24 6.09 8.1.06 2 .22 10.07-.59 13.18-.96 3.68 1.22 6.51 3.65 7.58 1.21.53 10.5 8.12 11.48 9.06.35.33.85.49 1.53.49 1.74 0 4.7-1.05 5.03-1.17.27-.1.49-.31.59-.57.11-.27.09-.57-.04-.82-.88-1.72-1.45-3.58-1.76-5.67-.07-.46-.44-.81-.9-.85-.07-.01-.15-.01-.23-.01-.89 0-2.04.43-2.78.75l-7.06-7.97 5.09-10.78c.66.06 1.73.13 3.17.13 2.49 0 6.49-.22 11.42-1.28 3.94-.84 6.24-1.85 8.27-2.74 2.55-1.12 4.39-1.92 8.44-1.92.56 0 1.16.02 1.79.05 1.84.95 4.02 2.27 5.41 3.13-1.22.7-2.91 1.68-4.66 2.7-2.92 1.7-5.94 3.45-6.95 4-.33.18-.53.52-.52.9.01.37.22.71.55.88 2.49 1.24 5.6 1.43 7.24 1.43.88 0 1.75-.05 2.57-.15.3-.04.57-.21.73-.47 1.48-2.43 9.01-4.93 11.85-5.87l.54-.18c1.13-.38 1.98-1.49 2.29-2.98.27-1.31.03-2.46-.66-3.07-.28-.28-.74-.78-1.23-1.31z" fill="url(#f)"/><path d="m10.24 50.95c-.11-.04-.22-.06-.33-.06-.22 0-.43.07-.61.21-2.3 1.78-3.56 3.48-4.04 4.12l-.11.14c-1.12 1.44-2.02 5.49.3 7.8.71.71 2.38 2.37 5.46 2.37.9 0 1.89-.14 2.92-.42.73-.19 1.76-.61 2.67-.99.54-.22 1.26-.51 1.52-.59.25-.01.49-.1.67-.28.25-.23-4.17-10.82-8.45-12.3z" fill="url(#g)"/><path d="m79.2 69.19c.32 2.07.91 4.05 1.6 5.99.35.97.75 1.91 1.15 2.84.43.93.89 1.83 1.38 2.72.52.87 1.04 1.73 1.64 2.54.6.8 1.23 1.55 1.96 2.25 1.44 1.4 3.11 2.58 4.96 3.59-2.11-.3-4.1-1.29-5.81-2.62-1.72-1.36-3.02-3.18-4.03-5.04-1.03-1.88-1.78-3.9-2.29-5.96-.49-2.07-.8-4.21-.56-6.31z" fill="#b05a2a"/><ellipse cx="25.77" cy="46.93" fill="#404040" rx="3.06" ry="2.71" transform="matrix(.3467 -.938 .938 .3467 -27.1815 54.8251)"/><path d="m91.05 52.13c-2.98-2.21-3.13 2.79-13.05 2.96-2.56.04-5.5-.33-7.91-1.26-1.53-.59-3.46-1.81-5.16-1.36-2.05.54-1.49 4.24-1.65 5.91-.21 2.27-.39 4.47-.41 6.76-.03 3.36.35 7.37 3.83 8.64 4.79 1.75 10.76 1.46 15.75 1.11 3.39-.24 10.99-1.18 12.57-4.73 1.55-3.46-.92-12.58-2.36-15.91-.41-.95-.96-1.64-1.61-2.12z" fill="url(#h)"/><path d="m11.51 55.22c.55.19.9.79.89 1.38s-.32 1.13-.75 1.54c-.51.48-1.2.38-1.32-.39-.06-.4.37-.89.3-1.33-.07-.5-1.56-.51-.6-.98.44-.23 1-.38 1.48-.22z" fill="#404040"/><path d="m42.03 31.96-3.24 1.46c3.58-.21 8.17 2.42 10.42.83-.02 3.31-2.04 3.46-4.57 3.67 1.55.69 3.43.9 4.98.4s2.5-1.69 2.5-1.69.87 2.39-1.44 4.19c0 0 1.81-.98 3.88-.78 1.52.14 2.89.59 4.33.08.47 1.76-.13 3.77-1.5 4.99 1.35.49 2.81.72 4.25.67-.95.69-1.96 1.28-3.03 1.77 2.14.31 4.31.36 6.46.15.54-.05 5.47-.51 5.35-1.15.37 2.04-.43 4.11-1.37 5.96-.99 1.96-2.16 3.87-3.82 5.31-3.83 3.29-8.53 1.9-12.54-.3-7-3.83-8.67-7.5-12-12.33-2.14-3.11-4.97-7.51-5.83-8.5-.54-.62-4.51-.5-4.47-1.65.07-1.73 1.12-2.53 2.37-3.24 4.65-2.68 9.27.16 9.27.16z" fill="url(#i)"/><path d="m43.39 90.9-1.58-1.51c-.4-2.63-.69-5.62-.27-9.95.72 2.71 1.01 8.03 1.85 11.46z" fill="#b05a2a"/><path d="m57.4 94.12s2.14-4.72 3.29-9.5c0 3.63-1.38 8.89-1.64 9.55z" fill="#b05a2a"/><path d="m10.14 51.5c4.07 1.56 7.52 4.47 7.36 11.16" fill="none" stroke="#4e342e" stroke-linecap="round" stroke-miterlimit="10" stroke-width="2"/><path d="m17.91 59.11c3.59-1.11 8.84-3.7 12.76-7.11" style="fill:none;stroke:#4e342e;stroke-width:2;stroke-linecap:round;stroke-linejoin:round;stroke-miterlimit:10"/><path d="m36.53 40.03-4.95 4.8-1.7 14.79" style="fill:none;stroke:#4e342e;stroke-width:2;stroke-linecap:round;stroke-linejoin:round;stroke-miterlimit:10"/><path d="m31.36 44.54c-3.62-4.19-5.87-5.61-9.86-7.47" style="fill:none;stroke:#4e342e;stroke-width:2;stroke-linecap:round;stroke-linejoin:round;stroke-miterlimit:10"/><path d="m15.47 43.06c-2.28-.5-4.99-2.58-5.22-6.37-.01-.21.23-.33.38-.19 1.01.89 4.89 1.68 7.27-1.12 1.09-1.28 2.83-3.42 4.35-4.03 3.99-1.6 7.18.42 7.18.42-3 3.87-3.67 13.54-13.96 11.29z" fill="url(#j)"/><path d="m17.51 62.66c7.99 0 20.99-5.87 27.08-13.16" style="fill:none;stroke:#4e342e;stroke-width:2;stroke-linecap:round;stroke-linejoin:round;stroke-miterlimit:10"/><path d="m32.95 28.22c.6-.52 1.72-.1 1.9.71.87 3.94 2.08 12.53-4.56 10.27-6.54-2.22-.35-8.39 2.66-10.98z" fill="#ffaf61"/><path d="m27.75 37.42c-1.61-2.8 2.8-7.14 5.2-9.2.6-.52 1.72-.1 1.9.71.53 2.41 1.19 6.54.11 8.89" fill="none" stroke="#b05a2a" stroke-linecap="round" stroke-linejoin="round" stroke-miterlimit="10"/><path d="m33.42 34.99c-.08.56-.22 1.13-.58 1.56-.36.44-1 .71-1.61.54-.69-.19-1.16-.87-1.23-1.51-.08-.65.16-1.26.42-1.83.3-.66 1.86-2.63 3.09-3.7.37-.33 0 4.26-.09 4.94z" fill="url(#k)"/><path d="m78 55.08-4.55 3.09s1.45 4.83.75 9.75-2.12 9.79-2.12 9.79l-6.53-22.62 6.22-5.26.56 5.09z" fill="#262626" opacity=".2"/><path d="m49.49 44.9c-.06-.21-.25-.35-.47-.35h-.3l-3.05-1.88c-.31-.19-.69-.26-.99-.2-.03 0-.08 0-.11.01-.04.01-.08.02-.1.03-.36.08-.66.25-.87.51l-1.13 1.39c-.18.22-.29.48-.33.76-1.02.38-1.68.75-1.94 1.09-.25.31-.35.71-.29 1.11.06.36.24.68.49.86.06.04.11.25.04.39-.25.48-.3.99-.15 1.43.18.53.52.76.99.94-.15.69-.16 1.1-.02 1.39.2.4.53.57.75.68.08.04.18.09.18.06.01.04.01.1.01.15.01.26.02.58.2.83.25.35.71.53 1.36.53.42 0 .91-.07 1.48-.22 1.94-.25 5.73-2.87 5.9-2.98.18-.12.26-.35.19-.56z" fill="url(#l)"/><path d="m57.04 9.77c-2.76-2.84-7.93-4.38-11.61-2.91-4.12 1.64-5.74 5.23-5.49 9.27.09 1.46.44 2.86.9 3.81.06.11.48.93.56 1.2.39 1.02-1.41 2.51-1.4 3.73.01.91 1.96 1.07 2.14 1.19.89.63.82 4.94 5.91 4.21 1.95-.28 2.22-.82 2.83-.94 3.22-.63 6.78.51 6.78.51l3.8-5.84s-3.51-2.17-3.41-2.54c.94-3.55.77-9.86-1.01-11.69z" fill="#ffca28"/><path d="m43.12 28.03c.7-.11 1.35-.43 1.84-.99.54-.62-.02-1.05-.68-.58-.4.29-1.01.52-1.6.54z" fill="#795548"/><ellipse cx="44.64" cy="21.04" fill="#404040" rx=".94" ry="1.44" transform="matrix(.9693 -.2457 .2457 .9693 -3.8004 11.6132)"/><path d="m43.59 19.27c-.78.55-1.18.06-1.05-.5.1-.41.52-.88 1.6-1.03 1.02-.15 1.6.27 1.97.51s.46.59.25.69c-.29.14-1.81-.35-2.77.33z" fill="#6d4c41"/><path d="m52.47 19.88.47-1.35c.32-.78.61-1.47 1.26-1.5 1.91-.09 2.44 3.22.49 4.51 0 0 .99 2.33 3.44 2.34.26 0 .48-.02.68-.05.63-.09 1-.69 1-1.33.02-3.99 1.47-3.57 1.19-8.13-.39-6.26-6.7-8.82-11.88-7.88-2.02.37-3.99 1.19-5.6 2.48-.69.54-3.01 2.63-3.27 4.06-.33 1.82.99 2.97.99 2.97s5.21-1.73 7.77-1.82c.34-.01.73 0 .94.26.1.11.34.92.39 1.06.58 1.82.71 3.03 1.56 4.06.13.16.57.32.57.32z" fill="#543930"/><path d="m92.77 40.46c-.35-2.47-1.75-4.69-3.35-6.25-2.26-2.21-5.26-.19-7.47 1.33-.1 0-.2.03-.29.09l-18.64 13.33c-1 .52-1.8 1.32-2.31 2.31-.55 1.04-.73 2.23-.53 3.43l4.15 23.09c.04.24.25.41.49.41h.04l5.99-.5c.24-.02.44-.21.46-.46.05-.62 1.17-14.96-.71-20.81 2.47-.84 13.26-4.63 18.62-8.43 1.05-.56 1.98-1.39 2.65-2.48.98-1.57 1.24-3.38.9-5.06z" fill="url(#m)"/><path d="m73.21 75.56-1.43-12.6c-.02-.13-.08-.26-.19-.34s-.25-.12-.38-.1l-9.61 1.45c-.13.02-.25.09-.33.2s-.11.25-.09.38l2.21 12.2-3.55 1.92c-1.45.84-2.24 2.46-2 4.12l.17 1.12c.06.37.25.7.55.92.24.18.53.27.83.27.07 0 .14-.01.21-.02l13.82-2.08c.81-.12 1.27-1.1 1.28-2.74.01-1.26-1.23-4.12-1.49-4.7z" fill="#444"/><path d="m90.93 35.49c-4.13-6.96-14.61-13.08-24.37-14.23-2.16-.25-8.74-1.03-10.18 5.74-.48 1.14-.54 3.7.44 5.42.6 1.05 1.51 1.68 2.65 1.81 9.48 1.11 14.27 6.84 14.32 6.9.1.12.24.18.39.18.08 0 .17-.02.24-.06.09-.05 8.73-4.82 16.1-5 .18-.01.34-.1.43-.26.07-.16.07-.35-.02-.5z" fill="url(#n)"/><path d="m60.68 24.84h-.2c-2.43.05-4.37 2.06-4.32 4.48l.09 11.57-8.2 3.58c-.25.11-.37.4-.26.65l2.56 6.1c.08.19.27.31.46.31.06 0 .12-.01.18-.03l9.32-3.68c3.28-1.02 3.61-3.83 3.62-3.96l1.23-14.65c0-.02 0-.03 0-.05-.04-2.43-2.08-4.36-4.48-4.32zm2.06 19.54h.03c-.01.03-.02.06-.04.1.01-.03.01-.06.01-.1z" fill="#fb8c00"/><path d="m50.83 22.12c.32 3.54-.07 5.72-.5 7.45 2.06-.32 2.41-3.82 2.66-6.62.24-2.79-.03-5.49-.03-5.49l-3.34-.29c0 .01 1.05 3.08 1.21 4.95z" fill="#262626"/><path d="m49.8 4.11c-.34.02-1.21.12-1.53.19-1.81.38-4.15 1.45-5.54 2.69-1.99 1.78-3.58 3.94-4.87 6.16-.65 1.12-4.47 2.12-3.8 3.69 1.36 3.16 7.75-.39 10.1-.27 1.76.09 3.46.67 5.2.89 3.14.39 6.28.58 9.44.64.45.01.89-.02 1.35-.07.7-.08 1.52-.02 1.64-.81.13-.85.35-1.89.32-2.75-.21-5.67-5.16-10.78-12.31-10.36z" fill="url(#o)"/><path d="m49.46 44.92c-.06-.21-.25-.35-.47-.35h-.3l-3.05-1.88c-.31-.19-.69-.26-.99-.2-.03 0-.08 0-.11.01-.04.01-.08.02-.1.03-.36.08-.66.25-.87.51l-1.13 1.39c-.18.22-.29.48-.33.76 0 0-.36.34-.36 1.04s.39.76.51.88c.29.29.36.88.13 1.22-.22.32-.18.76-.1 1.14.09.48.37.62.81.8.21.08.32.3.25.51-.1.29-.17.65-.12.93s.35.53.63.72c.17.12.29.21.3.42.01.18-.66 1.08.04 1.73.17.15.75-.1 1.01-.17 1.94-.25 5.73-2.87 5.9-2.98.18-.12.26-.35.19-.56z" fill="url(#p)"/></svg>