<?xml version="1.0" encoding="iso-8859-1"?>
<!-- Uploaded to: SVG Repo, www.svgrepo.com, Generator: SVG Repo Mixer Tools -->
<svg version="1.1" id="Layer_1" xmlns="http://www.w3.org/2000/svg" xmlns:xlink="http://www.w3.org/1999/xlink" 
	 viewBox="0 0 429.47 429.47" xml:space="preserve">
<g>
	<path style="fill:#4D99F4;" d="M332.138,339.494l0.223,89.39L97.332,429.47l-0.223-89.39c-0.099-39.62,28.219-72.671,65.751-79.864
		c4.908-0.942,9.986-1.445,15.166-1.458l72.79-0.181c5.18-0.013,10.261,0.464,15.173,1.382
		C303.557,266.965,332.039,299.874,332.138,339.494z"/>
	<rect x="97.119" y="378" style="fill:#FFD3AE;" width="40.5" height="51.18"/>
	<rect x="291.649" y="378" style="fill:#FFD3AE;" width="40.5" height="51.18"/>
	<path style="fill:#3085BF;" d="M266.199,260.087v5.68c0,13.79-5.36,26.73-15.11,36.46c-9.73,9.74-22.68,15.1-36.46,15.1
		c-28.43,0-51.56-23.13-51.56-51.56v-5.68c4.91-0.93,9.99-1.42,15.17-1.42h72.79C256.209,258.667,261.289,259.157,266.199,260.087z"
		/>
	<path style="fill:#FFD3AE;" d="M258.199,236v29.77c0,12.02-4.87,22.92-12.76,30.8c-7.88,7.88-18.78,12.76-30.81,12.76
		c-24.06,0-43.56-19.5-43.56-43.56V236H258.199z"/>
	<g>
		<g>
			<circle style="fill:#E5B591;" cx="134.06" cy="145.18" r="27.89"/>
			<circle style="fill:#E5B591;" cx="295.195" cy="145.18" r="27.89"/>
		</g>
	</g>
	<path style="fill:#E5B591;" d="M258.199,236v24.06c-12.86,7.29-27.73,11.45-43.57,11.45s-30.7-4.16-43.56-11.45V236H258.199z"/>
	<path style="fill:#FFD3AE;" d="M303.125,93.677v74c0,30.35-15.28,57.13-38.56,73.07c-0.19,0.14-0.39,0.27-0.58,0.4
		c-14.1,9.49-31.08,15.03-49.36,15.03s-35.26-5.54-49.36-15.03c-0.19-0.13-0.39-0.26-0.58-0.4c-7.83-5.36-14.75-11.95-20.48-19.48
		c-6.29-8.24-11.17-17.63-14.26-27.79c-2.49-8.16-3.82-16.83-3.82-25.8v-74c0-5.55,0.51-10.98,1.49-16.24
		c7.63-41.12,43.68-72.26,87.01-72.26c24.44,0,46.57,9.91,62.58,25.92C293.215,47.117,303.125,69.247,303.125,93.677z"/>
	<path style="fill:#E5B591;" d="M291.125,78.667l-3.38,49.12l-143.54,93.48c-11.35-14.87-18.08-33.45-18.08-53.59v-74
		c0-5.55,0.51-10.98,1.49-16.24L291.125,78.667z"/>
	<g>
		<path style="fill:#E5B591;" d="M167.497,144.513h35.044c6.522,0,11.81,5.287,11.81,11.81v21.123c0,5.092,4.128,9.22,9.22,9.22
			h6.748l-2.943,1.044c-7.666,2.72-16.214,0.773-21.946-4.999L167.497,144.513z"/>
	</g>
	<g>
		<path style="fill:#333333;" d="M180.625,165.616c-1.58,0-3.13-0.64-4.24-1.75c-1.12-1.12-1.76-2.67-1.76-4.25s0.64-3.12,1.76-4.24
			c1.39-1.39,3.46-2.03,5.41-1.64c0.39,0.08,0.76,0.19,1.13,0.34c0.36,0.15,0.71,0.34,1.03,0.55c0.33,0.22,0.64,0.47,0.91,0.75
			c0.28,0.28,0.53,0.58,0.75,0.91s0.4,0.68,0.55,1.04c0.15,0.36,0.27,0.74,0.34,1.12c0.08,0.39,0.12,0.78,0.12,1.17
			s-0.04,0.79-0.12,1.18c-0.07,0.38-0.19,0.76-0.34,1.12s-0.33,0.71-0.55,1.03c-0.22,0.33-0.47,0.64-0.75,0.92
			C183.755,164.977,182.205,165.616,180.625,165.616z"/>
		<path style="fill:#333333;" d="M248.625,165.616c-0.39,0-0.79-0.04-1.17-0.11c-0.38-0.08-0.76-0.2-1.12-0.35
			c-0.37-0.15-0.71-0.33-1.04-0.55c-0.33-0.22-0.64-0.47-0.91-0.74c-0.28-0.28-0.53-0.59-0.75-0.92c-0.22-0.32-0.4-0.67-0.55-1.03
			c-0.15-0.36-0.27-0.74-0.34-1.12c-0.08-0.39-0.12-0.79-0.12-1.18s0.04-0.78,0.12-1.17c0.07-0.38,0.19-0.76,0.34-1.12
			s0.33-0.71,0.55-1.04c0.22-0.33,0.47-0.63,0.75-0.91c0.27-0.28,0.58-0.53,0.91-0.75c0.33-0.21,0.67-0.4,1.04-0.55
			c0.36-0.15,0.74-0.26,1.12-0.34c1.95-0.39,4.02,0.25,5.41,1.64c0.28,0.28,0.53,0.58,0.75,0.91s0.4,0.68,0.55,1.04
			c0.15,0.36,0.27,0.74,0.34,1.12c0.08,0.39,0.12,0.78,0.12,1.17s-0.04,0.79-0.12,1.18c-0.07,0.38-0.19,0.76-0.34,1.12
			s-0.33,0.71-0.55,1.03c-0.22,0.33-0.47,0.64-0.75,0.92C251.755,164.977,250.205,165.616,248.625,165.616z"/>
		<path style="fill:#A67C52;" d="M191.563,147.513h-21.875c-3.087,0-5.59-2.503-5.59-5.59l0,0c0-3.087,2.503-5.59,5.59-5.59h21.875
			c3.087,0,5.59,2.503,5.59,5.59l0,0C197.153,145.011,194.65,147.513,191.563,147.513z"/>
		<path style="fill:#A67C52;" d="M259.563,147.513h-21.875c-3.087,0-5.59-2.503-5.59-5.59l0,0c0-3.087,2.503-5.59,5.59-5.59h21.875
			c3.087,0,5.59,2.503,5.59,5.59l0,0C265.153,145.011,262.65,147.513,259.563,147.513z"/>
	</g>
	<path style="fill:#FFFFFF;" d="M239.859,199.177c0,2.98-0.52,5.83-1.48,8.49c-0.45,1.28-1.01,2.51-1.65,3.68
		c-4.3,7.78-12.58,13.05-22.1,13.05c-9.53,0-17.81-5.27-22.11-13.05c-0.65-1.17-1.21-2.4-1.66-3.68c-0.96-2.66-1.47-5.51-1.47-8.49
		H239.859z"/>
	<path style="fill:#333333;" d="M238.379,207.667c-0.45,1.28-1.01,2.51-1.65,3.68c-4.3,7.78-12.58,13.05-22.1,13.05
		c-9.53,0-17.81-5.27-22.11-13.05c-0.65-1.17-1.21-2.4-1.66-3.68H238.379z"/>
	<path style="fill:#A67C52;" d="M140.455,90.747v67.33c0,12.569-3.651,24.868-10.51,35.4l0,0c-2.49-8.16-3.82-16.83-3.82-25.8v-74
		L140.455,90.747z"/>
	<path style="fill:#A67C52;" d="M288.795,90.747v67.33c0,12.569,3.651,24.868,10.51,35.4l0,0c2.49-8.16,3.82-16.83,3.82-25.8v-74
		L288.795,90.747z"/>
	<path style="fill:#7FBBF7;" d="M202.455,26l-76.33,77.767l6.038,16.943c2.697,7.569,12.437,9.591,17.938,3.733
		c16.142-17.191,39.079-27.927,64.524-27.927c24.44,0,46.57,9.91,62.58,25.92c0.637,0.637,1.264,1.284,1.882,1.94
		c5.533,5.879,15.291,3.931,18-3.674l6.037-16.946L202.455,26z"/>
	<path style="fill:#4D99F4;" d="M126.125,69.395v34.372c21.88-17.8,53.43-28.96,88.5-28.96c33.04,0,62.95,9.91,84.59,25.92
		c1.34,0.99,2.64,2,3.91,3.03V69.395C303.125,31.069,272.056,0,233.73,0h-38.21C157.194,0,126.125,31.069,126.125,69.395z"/>
	<g>
		<path style="fill:#3D92D8;" d="M146.125,69.395C146.125,31.069,177.194,0,215.52,0h-20c-38.326,0-69.395,31.069-69.395,69.395
			v34.372c5.984-4.868,12.695-9.235,20-13.017V69.395z"/>
	</g>
	<circle style="fill:#FFFFFF;" cx="214.625" cy="45.333" r="24.813"/>
	<rect x="97.119" y="368.667" style="fill:#3085BF;" width="40.5" height="9.333"/>
	
		<rect x="291.717" y="368.426" transform="matrix(1 -0.0025 0.0025 1 -0.9318 0.7811)" style="fill:#3085BF;" width="40.5" height="9.333"/>
	<g>
		<path style="fill:#4D4D4D;" d="M214.637,71.766c-1.574,0-3.168-0.141-4.771-0.435c-6.944-1.271-12.978-5.171-16.989-10.98
			c-4.012-5.809-5.521-12.833-4.25-19.777s5.17-12.978,10.979-16.989s12.832-5.52,19.777-4.25
			c6.943,1.271,12.978,5.171,16.989,10.98s5.521,12.833,4.249,19.777C238.292,62.826,227.145,71.766,214.637,71.766z
			 M214.575,21.897c-4.71,0-9.305,1.423-13.264,4.156c-5.149,3.556-8.606,8.905-9.733,15.061s0.21,12.382,3.767,17.532
			c3.556,5.15,8.905,8.607,15.061,9.733c12.708,2.327,24.939-6.12,27.265-18.827c1.127-6.156-0.211-12.382-3.767-17.532
			c-3.557-5.15-8.905-8.606-15.062-9.733C217.42,22.026,215.993,21.897,214.575,21.897z"/>
		<path style="fill:#4D4D4D;" d="M198.397,64.402l-2.074-2.167c3.568-3.417,5.928-7.802,6.822-12.683
			c1.42-7.757-1.131-15.653-6.823-21.123l2.079-2.163c6.419,6.169,9.296,15.077,7.695,23.827
			C205.087,55.598,202.425,60.547,198.397,64.402z"/>
		<path style="fill:#4D4D4D;" d="M198.911,34.826c-0.391,0-0.782-0.152-1.076-0.455c-0.577-0.594-0.563-1.544,0.031-2.121l3.9-3.785
			c0.594-0.576,1.544-0.563,2.121,0.032s0.563,1.544-0.031,2.121l-3.9,3.785C199.664,34.685,199.287,34.826,198.911,34.826z"/>
		<path style="fill:#4D4D4D;" d="M200.82,39.515c-0.581,0-1.134-0.34-1.378-0.907c-0.328-0.761,0.023-1.643,0.784-1.971l4.992-2.151
			c0.764-0.328,1.645,0.024,1.971,0.784c0.328,0.761-0.023,1.643-0.784,1.971l-4.992,2.151
			C201.219,39.475,201.018,39.515,200.82,39.515z"/>
		<path style="fill:#4D4D4D;" d="M202.215,44.371c-0.762,0-1.415-0.579-1.491-1.353c-0.081-0.824,0.521-1.559,1.346-1.64
			l5.409-0.531c0.823-0.08,1.558,0.521,1.639,1.346c0.081,0.824-0.521,1.559-1.346,1.64l-5.409,0.531
			C202.313,44.369,202.264,44.371,202.215,44.371z"/>
		<path style="fill:#4D4D4D;" d="M202.811,62.793c-0.376,0-0.753-0.141-1.045-0.424l-3.9-3.785
			c-0.594-0.577-0.608-1.527-0.031-2.121c0.576-0.594,1.527-0.608,2.121-0.032l3.9,3.785c0.594,0.577,0.608,1.527,0.031,2.121
			C203.593,62.64,203.202,62.793,202.811,62.793z"/>
		<path style="fill:#4D4D4D;" d="M205.81,56.47c-0.198,0-0.399-0.04-0.593-0.123l-4.992-2.151c-0.761-0.328-1.112-1.21-0.784-1.971
			s1.21-1.112,1.971-0.784l4.992,2.151c0.761,0.328,1.112,1.21,0.784,1.971C206.944,56.13,206.391,56.47,205.81,56.47z"/>
		<path style="fill:#4D4D4D;" d="M207.627,49.993c-0.049,0-0.099-0.002-0.148-0.007l-5.409-0.531
			c-0.825-0.081-1.427-0.815-1.346-1.64c0.081-0.825,0.818-1.429,1.639-1.346L207.772,47c0.825,0.081,1.427,0.815,1.346,1.64
			C209.042,49.414,208.39,49.993,207.627,49.993z"/>
		<path style="fill:#4D4D4D;" d="M230.676,64.402c-4.027-3.855-6.689-8.803-7.699-14.309c-1.602-8.751,1.275-17.658,7.695-23.827
			l2.078,2.163c-5.691,5.47-8.242,13.366-6.822,21.124c0.896,4.881,3.254,9.267,6.822,12.683L230.676,64.402z"/>
		<path style="fill:#4D4D4D;" d="M230.163,34.826c-0.377,0-0.753-0.141-1.045-0.424l-3.899-3.785
			c-0.595-0.577-0.608-1.527-0.031-2.121s1.526-0.608,2.121-0.031l3.899,3.785c0.595,0.577,0.608,1.527,0.031,2.121
			C230.945,34.674,230.554,34.826,230.163,34.826z"/>
		<path style="fill:#4D4D4D;" d="M228.252,39.515c-0.198,0-0.399-0.04-0.593-0.123l-4.991-2.15c-0.761-0.328-1.111-1.21-0.784-1.971
			c0.328-0.761,1.21-1.111,1.972-0.784l4.991,2.151c0.761,0.328,1.111,1.21,0.784,1.971
			C229.386,39.175,228.834,39.515,228.252,39.515z"/>
		<path style="fill:#4D4D4D;" d="M226.859,44.371c-0.049,0-0.099-0.002-0.148-0.007l-5.409-0.531
			c-0.824-0.081-1.428-0.815-1.347-1.64c0.081-0.824,0.811-1.428,1.64-1.346l5.409,0.531c0.824,0.081,1.428,0.815,1.347,1.64
			C228.274,43.792,227.622,44.371,226.859,44.371z"/>
		<path style="fill:#4D4D4D;" d="M226.263,62.793c-0.392,0-0.782-0.152-1.076-0.455c-0.577-0.594-0.563-1.544,0.031-2.121
			l3.899-3.785c0.596-0.577,1.545-0.563,2.121,0.031c0.577,0.594,0.563,1.544-0.031,2.121l-3.899,3.785
			C227.016,62.652,226.64,62.793,226.263,62.793z"/>
		<path style="fill:#4D4D4D;" d="M223.263,56.47c-0.581,0-1.134-0.34-1.379-0.907c-0.327-0.761,0.023-1.643,0.784-1.971l4.991-2.15
			c0.759-0.328,1.643,0.023,1.972,0.784c0.327,0.761-0.023,1.643-0.784,1.971l-4.991,2.151
			C223.663,56.43,223.461,56.47,223.263,56.47z"/>
		<path style="fill:#4D4D4D;" d="M221.446,49.993c-0.763,0-1.415-0.579-1.491-1.353c-0.081-0.824,0.522-1.559,1.347-1.64
			l5.409-0.531c0.821-0.081,1.559,0.522,1.64,1.346s-0.522,1.559-1.347,1.64l-5.409,0.531
			C221.544,49.991,221.495,49.993,221.446,49.993z"/>
	</g>
</g>
</svg>