<?xml version="1.0" encoding="iso-8859-1"?>
<!-- Uploaded to: SVG Repo, www.svgrepo.com, Generator: SVG Repo Mixer Tools -->
<svg version="1.1" id="Layer_1" xmlns="http://www.w3.org/2000/svg" xmlns:xlink="http://www.w3.org/1999/xlink" 
	 viewBox="0 0 450.449 450.449" xml:space="preserve">
<g>
	<rect x="154.166" y="220.725" style="fill:#935827;" width="142.241" height="118"/>
	<path style="fill:#FFD3AE;" d="M268.852,257.943v29.77c0,12.02-4.87,22.92-12.76,30.8c-7.88,7.88-18.78,12.76-30.81,12.76
		c-24.06,0-43.56-19.5-43.56-43.56v-29.77H268.852z"/>
	<g>
		<g>
			<circle style="fill:#E5B591;" cx="157.907" cy="179.123" r="27.89"/>
			<circle style="fill:#E5B591;" cx="292.543" cy="179.123" r="27.89"/>
		</g>
	</g>
	<g>
		<path style="fill:#4D4D4D;" d="M342.74,361.058v89.39h-235.03v-89.39c0-39.62,28.4-72.6,65.95-79.7
			c4.91-0.93,9.99-1.42,15.17-1.42h72.79c5.18,0,10.26,0.49,15.17,1.42C314.339,288.458,342.74,321.438,342.74,361.058z"/>
		<path style="fill:#333333;" d="M276.789,281.358v8.16l-51.57,75.24l-51.56-75.24v-8.16c4.91-0.93,9.99-1.42,15.17-1.42h72.79
			C266.799,279.938,271.879,280.428,276.789,281.358z"/>
		<polygon style="fill:#F2F2F2;" points="268.789,257.272 268.789,287.042 225.219,350.605 181.659,287.042 181.659,257.272 		"/>
		<g>
			<rect x="145.709" y="356.602" style="fill:#333333;" width="5" height="93.847"/>
			<rect x="299.74" y="356.602" style="fill:#333333;" width="5" height="93.847"/>
		</g>
		<rect x="221.224" y="357.142" style="fill:#333333;" width="8" height="93.306"/>
		<circle style="fill:#F2F2F2;" cx="238.561" cy="368.059" r="5.333"/>
		<polygon style="fill:#FFFFFF;" points="225.219,292.782 201.712,316.289 181.659,287.042 181.659,280.253 		"/>
		<polygon style="fill:#FFFFFF;" points="225.219,292.782 248.726,316.289 268.779,287.042 268.779,280.253 		"/>
	</g>
	<path style="fill:#E5B591;" d="M268.852,257.943v24.06c-12.86,7.29-27.73,11.45-43.57,11.45s-30.7-4.16-43.56-11.45v-24.06H268.852
		z"/>
	<path style="fill:#FFD3AE;" d="M307.629,127.682c0,1.96-0.07,3.94-0.21,5.93l-5.16,72.74c-0.27,3.88-0.83,7.67-1.66,11.36
		c-7.72,34.8-38.72,60.41-75.37,60.41c-40.54,0-74.17-31.33-77.04-71.77l-5.16-72.74c-3.38-47.68,34.39-88.22,82.2-88.22
		c38.93,0,71.2,26.89,80.01,62.62C306.799,114.322,307.629,120.912,307.629,127.682z"/>
	<path style="fill:#935827;" d="M307.629,127.682c0,1.96-0.07,3.94-0.21,5.93l-5.16,72.74c-0.27,3.88-0.83,7.67-1.66,11.36
		c-18.98-18.46-18.71-81.86-18.71-81.86l23.35-27.84C306.799,114.322,307.629,120.912,307.629,127.682z"/>
	<path style="fill:#935827;" d="M142.819,127.682c0,1.96,0.07,3.94,0.21,5.93l5.16,72.74c0.27,3.88,0.83,7.67,1.66,11.36
		c18.98-18.46,18.71-81.86,18.71-81.86l-23.35-27.84C143.649,114.322,142.819,120.912,142.819,127.682z"/>
	<path style="fill:#4D4D4D;" d="M225.225,281.123c-20.364,0-39.786-7.645-54.687-21.526c-14.9-13.882-23.9-32.714-25.34-53.028
		l-5.157-72.741c-1.694-23.901,6.367-46.718,22.7-64.25c16.332-17.531,38.522-27.186,62.483-27.186s46.151,9.655,62.483,27.187
		c16.333,17.531,24.395,40.349,22.699,64.249l-5.156,72.741c-1.439,20.314-10.439,39.146-25.34,53.028
		C265.011,273.478,245.59,281.123,225.225,281.123z M225.225,48.392c-22.277,0-42.908,8.977-58.094,25.276
		c-15.185,16.299-22.681,37.514-21.105,59.735l5.157,72.741c2.742,38.679,35.266,68.978,74.042,68.978s71.3-30.299,74.042-68.978
		l5.156-72.741c1.575-22.221-5.92-43.435-21.104-59.735C268.134,57.369,247.503,48.392,225.225,48.392z"/>
	<g>
		<path style="fill:#E5B591;" d="M174.149,166.456h35.044c6.522,0,11.81,5.287,11.81,11.81v25.558c0,2.643,2.142,4.785,4.785,4.785
			h11.183l-9.485,3.366c-3.672,1.303-7.767,0.37-10.513-2.395L174.149,166.456z"/>
	</g>
	<g>
		<path style="fill:#FFFFFF;" d="M246.236,225.392c0,2.475-0.432,4.842-1.229,7.052c-0.374,1.063-0.839,2.085-1.371,3.057
			c-3.572,6.462-10.449,10.839-18.356,10.839c-7.916,0-14.793-4.377-18.365-10.839c-0.54-0.972-1.005-1.993-1.379-3.057
			c-0.797-2.209-1.221-4.577-1.221-7.052H246.236z"/>
		<path style="fill:#333333;" d="M245.014,232.444c-0.374,1.063-0.839,2.085-1.371,3.057c-3.572,6.462-10.449,10.839-18.356,10.839
			c-7.916,0-14.793-4.377-18.365-10.839c-0.54-0.972-1.005-1.993-1.379-3.057H245.014z"/>
	</g>
	<path style="fill:#935827;" d="M201.907,170.893c-0.322,0-0.649-0.052-0.972-0.163c-6.948-2.379-14.602-2.379-21.548,0
		c-1.565,0.536-3.273-0.299-3.81-1.867c-0.537-1.567,0.299-3.273,1.866-3.81c8.202-2.808,17.234-2.808,25.435,0
		c1.567,0.537,2.403,2.243,1.866,3.81C204.319,170.109,203.154,170.893,201.907,170.893z"/>
	<path style="fill:#935827;" d="M272.034,170.893c-0.322,0-0.649-0.052-0.972-0.163c-6.948-2.379-14.6-2.379-21.548,0
		c-1.564,0.536-3.273-0.299-3.81-1.867c-0.537-1.567,0.299-3.273,1.866-3.81c8.202-2.808,17.234-2.808,25.435,0
		c1.567,0.537,2.403,2.243,1.866,3.81C274.446,170.109,273.281,170.893,272.034,170.893z"/>
	<g>
		<circle style="fill:#FCC9A2;" cx="269.53" cy="215.392" r="16"/>
		<circle style="fill:#FCC9A2;" cx="181.03" cy="215.392" r="16"/>
	</g>
	<path style="fill:#4D4D4D;" d="M295.836,37.305c-14.794-14.794-34.201-24.955-55.877-28.16C237.611,3.764,232.249,0,226.003,0
		c-6.167,0-11.466,3.674-13.859,8.946c-48.852,6.6-86.776,49.502-86.776,100.152v19.738c0,3.876,3.142,7.018,7.018,7.018h36.18
		l10.572,15.229c2.091,3.012,5.526,4.809,9.193,4.809h73.791c3.667,0,7.102-1.797,9.193-4.809l10.572-15.229h36.18
		c3.876,0,7.018-3.142,7.018-7.018v-20.92C325.082,80.34,313.901,55.381,295.836,37.305z"/>
	<path style="fill:#333333;" d="M297.814,398.062v10.59c0,15.87-12.86,28.74-28.73,28.74h-87.71c-15.87,0-28.74-12.87-28.74-28.74
		v-10.59h0.4c2.25,13.62,14.09,24,28.34,24h87.71c14.25,0,26.08-10.38,28.33-24H297.814z"/>
	<g>
		<circle style="fill:#333333;" cx="190.161" cy="181.993" r="6"/>
		<circle style="fill:#333333;" cx="260.288" cy="181.993" r="6"/>
	</g>
</g>
</svg>